<mxfile host="app.diagrams.net" agent="Mozilla/5.0 (Macintosh; Intel Mac OS X 10_15_7) AppleWebKit/537.36 (KHTML, like Gecko) Chrome/130.0.0.0 Safari/537.36" version="24.8.4">
  <diagram name="Page-1" id="3ZTmaBWesG3wab20xoZ4">
    <mxGraphModel dx="2021" dy="1774" grid="1" gridSize="10" guides="1" tooltips="1" connect="1" arrows="1" fold="1" page="1" pageScale="1" pageWidth="827" pageHeight="1169" math="0" shadow="0">
      <root>
        <mxCell id="0" />
        <mxCell id="1" parent="0" />
        <mxCell id="xEsBUwvgHWnWTjqJX90E-7" value="" style="rounded=0;whiteSpace=wrap;html=1;" parent="1" vertex="1">
          <mxGeometry x="-60" y="950" width="240" height="260" as="geometry" />
        </mxCell>
        <mxCell id="UPwrXAc3rniUV73PDgA9-1" value="" style="rounded=0;whiteSpace=wrap;html=1;" parent="1" vertex="1">
          <mxGeometry x="170" y="180" width="370" height="250" as="geometry" />
        </mxCell>
        <mxCell id="UPwrXAc3rniUV73PDgA9-2" value="" style="rounded=0;whiteSpace=wrap;html=1;" parent="1" vertex="1">
          <mxGeometry x="390" y="330" width="120" height="60" as="geometry" />
        </mxCell>
        <mxCell id="UPwrXAc3rniUV73PDgA9-3" value="Text" style="text;html=1;align=center;verticalAlign=middle;whiteSpace=wrap;rounded=0;" parent="1" vertex="1">
          <mxGeometry x="420" y="345" width="60" height="30" as="geometry" />
        </mxCell>
        <mxCell id="UPwrXAc3rniUV73PDgA9-4" value="" style="rounded=1;whiteSpace=wrap;html=1;" parent="1" vertex="1">
          <mxGeometry x="400" y="200" width="120" height="60" as="geometry" />
        </mxCell>
        <mxCell id="UPwrXAc3rniUV73PDgA9-5" value="Text" style="text;html=1;align=center;verticalAlign=middle;whiteSpace=wrap;rounded=0;" parent="1" vertex="1">
          <mxGeometry x="440" y="220" width="60" height="30" as="geometry" />
        </mxCell>
        <mxCell id="UPwrXAc3rniUV73PDgA9-6" value="Text" style="text;html=1;align=center;verticalAlign=middle;whiteSpace=wrap;rounded=0;" parent="1" vertex="1">
          <mxGeometry x="360" y="290" width="60" height="30" as="geometry" />
        </mxCell>
        <mxCell id="UPwrXAc3rniUV73PDgA9-7" value="" style="endArrow=none;html=1;rounded=0;" parent="1" edge="1">
          <mxGeometry width="50" height="50" relative="1" as="geometry">
            <mxPoint x="330" y="530" as="sourcePoint" />
            <mxPoint x="330" y="80" as="targetPoint" />
          </mxGeometry>
        </mxCell>
        <mxCell id="xEsBUwvgHWnWTjqJX90E-1" value="" style="rounded=0;whiteSpace=wrap;html=1;" parent="1" vertex="1">
          <mxGeometry x="100" y="560" width="260" height="310" as="geometry" />
        </mxCell>
        <mxCell id="xEsBUwvgHWnWTjqJX90E-3" value="" style="rounded=0;whiteSpace=wrap;html=1;" parent="1" vertex="1">
          <mxGeometry x="160" y="950" width="310" height="200" as="geometry" />
        </mxCell>
        <mxCell id="xEsBUwvgHWnWTjqJX90E-4" value="Percy" style="rounded=0;whiteSpace=wrap;html=1;" parent="1" vertex="1">
          <mxGeometry x="310" y="1460" width="180" height="100" as="geometry" />
        </mxCell>
        <mxCell id="xEsBUwvgHWnWTjqJX90E-5" value="" style="rounded=0;whiteSpace=wrap;html=1;" parent="1" vertex="1">
          <mxGeometry x="330" y="1030" width="120" height="60" as="geometry" />
        </mxCell>
        <mxCell id="xEsBUwvgHWnWTjqJX90E-6" value="" style="rounded=0;whiteSpace=wrap;html=1;" parent="1" vertex="1">
          <mxGeometry x="490" y="1030" width="120" height="60" as="geometry" />
        </mxCell>
        <mxCell id="xEsBUwvgHWnWTjqJX90E-8" value="" style="rounded=0;whiteSpace=wrap;html=1;" parent="1" vertex="1">
          <mxGeometry x="370" y="1160" width="140" height="60" as="geometry" />
        </mxCell>
        <mxCell id="-mlERuU3pV8OoJhpunBy-1" value="IMG" style="rounded=0;whiteSpace=wrap;html=1;" parent="1" vertex="1">
          <mxGeometry x="349" y="-490" width="121" height="60" as="geometry" />
        </mxCell>
        <mxCell id="-mlERuU3pV8OoJhpunBy-2" value="" style="rounded=0;whiteSpace=wrap;html=1;" parent="1" vertex="1">
          <mxGeometry x="100" y="-540" width="230" height="180" as="geometry" />
        </mxCell>
        <mxCell id="mzFxPpL-yWvgpCiozBXA-2" value="" style="rounded=0;whiteSpace=wrap;html=1;" parent="1" vertex="1">
          <mxGeometry x="100" y="-330" width="230" height="180" as="geometry" />
        </mxCell>
        <mxCell id="mzFxPpL-yWvgpCiozBXA-3" value="" style="endArrow=none;html=1;rounded=0;" parent="1" source="mzFxPpL-yWvgpCiozBXA-1" edge="1">
          <mxGeometry width="50" height="50" relative="1" as="geometry">
            <mxPoint x="379" y="-140" as="sourcePoint" />
            <mxPoint x="379" y="-350" as="targetPoint" />
          </mxGeometry>
        </mxCell>
        <mxCell id="mzFxPpL-yWvgpCiozBXA-4" value="IMG" style="rounded=0;whiteSpace=wrap;html=1;" parent="1" vertex="1">
          <mxGeometry x="520" y="-310" width="250" height="130" as="geometry" />
        </mxCell>
        <mxCell id="mzFxPpL-yWvgpCiozBXA-5" value="" style="rounded=0;whiteSpace=wrap;html=1;fillColor=#66FFB3;" parent="1" vertex="1">
          <mxGeometry x="710" y="-240" width="50" height="50" as="geometry" />
        </mxCell>
        <mxCell id="mzFxPpL-yWvgpCiozBXA-6" value="" style="rounded=0;whiteSpace=wrap;html=1;fillColor=#B5739D;" parent="1" vertex="1">
          <mxGeometry x="710" y="-300" width="50" height="50" as="geometry" />
        </mxCell>
        <mxCell id="mzFxPpL-yWvgpCiozBXA-7" value="" style="rounded=0;whiteSpace=wrap;html=1;" parent="1" vertex="1">
          <mxGeometry x="530" y="-300" width="100" height="110" as="geometry" />
        </mxCell>
        <mxCell id="mzFxPpL-yWvgpCiozBXA-8" value="" style="endArrow=none;html=1;rounded=0;" parent="1" target="mzFxPpL-yWvgpCiozBXA-1" edge="1">
          <mxGeometry width="50" height="50" relative="1" as="geometry">
            <mxPoint x="379" y="-140" as="sourcePoint" />
            <mxPoint x="379" y="-350" as="targetPoint" />
          </mxGeometry>
        </mxCell>
        <mxCell id="mzFxPpL-yWvgpCiozBXA-1" value="IMG" style="rounded=0;whiteSpace=wrap;html=1;" parent="1" vertex="1">
          <mxGeometry x="319" y="-270" width="121" height="60" as="geometry" />
        </mxCell>
        <mxCell id="mzFxPpL-yWvgpCiozBXA-9" value="" style="rounded=0;whiteSpace=wrap;html=1;" parent="1" vertex="1">
          <mxGeometry x="180" y="-60" width="290" height="120" as="geometry" />
        </mxCell>
        <mxCell id="mzFxPpL-yWvgpCiozBXA-10" value="" style="rounded=0;whiteSpace=wrap;html=1;" parent="1" vertex="1">
          <mxGeometry x="200" y="-40" width="140" height="60" as="geometry" />
        </mxCell>
        <mxCell id="mzFxPpL-yWvgpCiozBXA-11" value="" style="rounded=0;whiteSpace=wrap;html=1;" parent="1" vertex="1">
          <mxGeometry x="406" y="-40" width="134" height="60" as="geometry" />
        </mxCell>
        <mxCell id="lRBiv06avsz0MKo187st-1" value="" style="rounded=0;whiteSpace=wrap;html=1;" parent="1" vertex="1">
          <mxGeometry x="560" y="70" width="140" height="80" as="geometry" />
        </mxCell>
        <mxCell id="lRBiv06avsz0MKo187st-2" value="Text" style="text;html=1;align=center;verticalAlign=middle;whiteSpace=wrap;rounded=0;fillColor=#FF3333;" parent="1" vertex="1">
          <mxGeometry x="680" y="95" width="60" height="30" as="geometry" />
        </mxCell>
        <mxCell id="lRBiv06avsz0MKo187st-3" value="Text" style="text;html=1;align=center;verticalAlign=middle;whiteSpace=wrap;rounded=0;fillColor=#80FF00;" parent="1" vertex="1">
          <mxGeometry x="580" y="95" width="60" height="30" as="geometry" />
        </mxCell>
        <mxCell id="nasCyZGMzeWycCTVbHaB-1" value="" style="rounded=0;whiteSpace=wrap;html=1;" vertex="1" parent="1">
          <mxGeometry x="-440" y="1720" width="630" height="190" as="geometry" />
        </mxCell>
        <mxCell id="nasCyZGMzeWycCTVbHaB-2" value="Input From UI" style="rounded=0;whiteSpace=wrap;html=1;" vertex="1" parent="1">
          <mxGeometry x="-413" y="1770" width="133" height="70" as="geometry" />
        </mxCell>
        <mxCell id="nasCyZGMzeWycCTVbHaB-11" style="edgeStyle=orthogonalEdgeStyle;rounded=0;orthogonalLoop=1;jettySize=auto;html=1;entryX=0.5;entryY=1;entryDx=0;entryDy=0;" edge="1" parent="1" source="nasCyZGMzeWycCTVbHaB-3" target="nasCyZGMzeWycCTVbHaB-7">
          <mxGeometry relative="1" as="geometry" />
        </mxCell>
        <mxCell id="nasCyZGMzeWycCTVbHaB-3" value="Website Resource Capture" style="rounded=0;whiteSpace=wrap;html=1;" vertex="1" parent="1">
          <mxGeometry x="-210" y="1770" width="133" height="70" as="geometry" />
        </mxCell>
        <mxCell id="nasCyZGMzeWycCTVbHaB-4" value="Jenkin Job: QA+Dev" style="text;html=1;align=center;verticalAlign=middle;whiteSpace=wrap;rounded=0;" vertex="1" parent="1">
          <mxGeometry x="-178.5" y="1930" width="70" height="50" as="geometry" />
        </mxCell>
        <mxCell id="nasCyZGMzeWycCTVbHaB-29" style="edgeStyle=orthogonalEdgeStyle;rounded=0;orthogonalLoop=1;jettySize=auto;html=1;entryX=0.5;entryY=0;entryDx=0;entryDy=0;exitX=1;exitY=0.5;exitDx=0;exitDy=0;" edge="1" parent="1" source="nasCyZGMzeWycCTVbHaB-5" target="nasCyZGMzeWycCTVbHaB-27">
          <mxGeometry relative="1" as="geometry" />
        </mxCell>
        <mxCell id="nasCyZGMzeWycCTVbHaB-5" value="Percy Non-Production Queue" style="rounded=0;whiteSpace=wrap;html=1;" vertex="1" parent="1">
          <mxGeometry x="280" y="1580" width="240" height="40" as="geometry" />
        </mxCell>
        <mxCell id="nasCyZGMzeWycCTVbHaB-9" style="edgeStyle=orthogonalEdgeStyle;rounded=0;orthogonalLoop=1;jettySize=auto;html=1;exitX=1;exitY=0.5;exitDx=0;exitDy=0;" edge="1" parent="1" source="nasCyZGMzeWycCTVbHaB-7" target="nasCyZGMzeWycCTVbHaB-10">
          <mxGeometry relative="1" as="geometry">
            <mxPoint x="-10" y="1520" as="targetPoint" />
          </mxGeometry>
        </mxCell>
        <mxCell id="nasCyZGMzeWycCTVbHaB-7" value="Launch Chrome (puppeteer)" style="rounded=0;whiteSpace=wrap;html=1;" vertex="1" parent="1">
          <mxGeometry x="-240" y="1490" width="120" height="60" as="geometry" />
        </mxCell>
        <mxCell id="nasCyZGMzeWycCTVbHaB-13" style="edgeStyle=orthogonalEdgeStyle;rounded=0;orthogonalLoop=1;jettySize=auto;html=1;entryX=0;entryY=0.5;entryDx=0;entryDy=0;" edge="1" parent="1" source="nasCyZGMzeWycCTVbHaB-10" target="nasCyZGMzeWycCTVbHaB-12">
          <mxGeometry relative="1" as="geometry" />
        </mxCell>
        <mxCell id="nasCyZGMzeWycCTVbHaB-20" style="edgeStyle=orthogonalEdgeStyle;rounded=0;orthogonalLoop=1;jettySize=auto;html=1;entryX=1;entryY=0.5;entryDx=0;entryDy=0;" edge="1" parent="1" source="nasCyZGMzeWycCTVbHaB-10" target="nasCyZGMzeWycCTVbHaB-3">
          <mxGeometry relative="1" as="geometry">
            <Array as="points">
              <mxPoint x="-10" y="1660" />
              <mxPoint x="-57" y="1660" />
              <mxPoint x="-57" y="1790" />
              <mxPoint x="-77" y="1790" />
            </Array>
          </mxGeometry>
        </mxCell>
        <mxCell id="nasCyZGMzeWycCTVbHaB-10" value="Extension (Generated proxy map)" style="rounded=0;whiteSpace=wrap;html=1;" vertex="1" parent="1">
          <mxGeometry x="-70" y="1490" width="120" height="60" as="geometry" />
        </mxCell>
        <mxCell id="nasCyZGMzeWycCTVbHaB-12" value="AWS S3" style="rounded=0;whiteSpace=wrap;html=1;" vertex="1" parent="1">
          <mxGeometry x="150" y="1490" width="120" height="60" as="geometry" />
        </mxCell>
        <mxCell id="nasCyZGMzeWycCTVbHaB-17" value="" style="endArrow=classic;html=1;rounded=0;entryX=1.013;entryY=0.625;entryDx=0;entryDy=0;entryPerimeter=0;exitX=-0.021;exitY=0.625;exitDx=0;exitDy=0;exitPerimeter=0;" edge="1" parent="1" source="nasCyZGMzeWycCTVbHaB-12" target="nasCyZGMzeWycCTVbHaB-10">
          <mxGeometry width="50" height="50" relative="1" as="geometry">
            <mxPoint x="70" y="1740" as="sourcePoint" />
            <mxPoint x="120" y="1690" as="targetPoint" />
          </mxGeometry>
        </mxCell>
        <mxCell id="nasCyZGMzeWycCTVbHaB-18" value="Upload" style="text;html=1;align=center;verticalAlign=middle;whiteSpace=wrap;rounded=0;" vertex="1" parent="1">
          <mxGeometry x="70" y="1480" width="60" height="30" as="geometry" />
        </mxCell>
        <mxCell id="nasCyZGMzeWycCTVbHaB-19" value="Proxy URLs" style="text;html=1;align=center;verticalAlign=middle;whiteSpace=wrap;rounded=0;" vertex="1" parent="1">
          <mxGeometry x="70" y="1530" width="60" height="30" as="geometry" />
        </mxCell>
        <mxCell id="nasCyZGMzeWycCTVbHaB-21" value="Spins Browser" style="text;html=1;align=center;verticalAlign=middle;whiteSpace=wrap;rounded=0;" vertex="1" parent="1">
          <mxGeometry x="-250" y="1610" width="60" height="30" as="geometry" />
        </mxCell>
        <mxCell id="nasCyZGMzeWycCTVbHaB-22" value="Proxy Map Data [{&lt;div&gt;Website,&lt;br&gt;&lt;div&gt;Proxy Map JSON&lt;/div&gt;&lt;/div&gt;&lt;div&gt;},{}]&lt;/div&gt;" style="text;html=1;align=center;verticalAlign=middle;whiteSpace=wrap;rounded=0;" vertex="1" parent="1">
          <mxGeometry y="1585" width="110" height="80" as="geometry" />
        </mxCell>
        <mxCell id="nasCyZGMzeWycCTVbHaB-26" style="edgeStyle=orthogonalEdgeStyle;rounded=0;orthogonalLoop=1;jettySize=auto;html=1;entryX=0.5;entryY=1;entryDx=0;entryDy=0;" edge="1" parent="1" source="nasCyZGMzeWycCTVbHaB-23" target="nasCyZGMzeWycCTVbHaB-5">
          <mxGeometry relative="1" as="geometry">
            <Array as="points">
              <mxPoint x="80" y="1690" />
              <mxPoint x="400" y="1690" />
            </Array>
          </mxGeometry>
        </mxCell>
        <mxCell id="nasCyZGMzeWycCTVbHaB-23" value="Queue" style="rounded=0;whiteSpace=wrap;html=1;" vertex="1" parent="1">
          <mxGeometry x="20" y="1775" width="120" height="60" as="geometry" />
        </mxCell>
        <mxCell id="nasCyZGMzeWycCTVbHaB-31" style="edgeStyle=orthogonalEdgeStyle;rounded=0;orthogonalLoop=1;jettySize=auto;html=1;entryX=0.5;entryY=0;entryDx=0;entryDy=0;" edge="1" parent="1" source="nasCyZGMzeWycCTVbHaB-27" target="nasCyZGMzeWycCTVbHaB-30">
          <mxGeometry relative="1" as="geometry" />
        </mxCell>
        <mxCell id="nasCyZGMzeWycCTVbHaB-27" value="Service to get results for each website" style="rounded=0;whiteSpace=wrap;html=1;" vertex="1" parent="1">
          <mxGeometry x="500" y="1694" width="120" height="60" as="geometry" />
        </mxCell>
        <mxCell id="nasCyZGMzeWycCTVbHaB-30" value="Storing Locally by POST on local-server to save results." style="rounded=0;whiteSpace=wrap;html=1;" vertex="1" parent="1">
          <mxGeometry x="430" y="1815" width="120" height="60" as="geometry" />
        </mxCell>
        <mxCell id="nasCyZGMzeWycCTVbHaB-32" value="" style="endArrow=classic;html=1;rounded=0;exitX=1;exitY=0.5;exitDx=0;exitDy=0;entryX=0;entryY=0.5;entryDx=0;entryDy=0;" edge="1" parent="1" source="nasCyZGMzeWycCTVbHaB-2" target="nasCyZGMzeWycCTVbHaB-3">
          <mxGeometry width="50" height="50" relative="1" as="geometry">
            <mxPoint x="120" y="1740" as="sourcePoint" />
            <mxPoint x="170" y="1690" as="targetPoint" />
          </mxGeometry>
        </mxCell>
        <mxCell id="nasCyZGMzeWycCTVbHaB-33" value="" style="endArrow=classic;html=1;rounded=0;exitX=1;exitY=0.5;exitDx=0;exitDy=0;entryX=0;entryY=0.5;entryDx=0;entryDy=0;" edge="1" parent="1" source="nasCyZGMzeWycCTVbHaB-3">
          <mxGeometry width="50" height="50" relative="1" as="geometry">
            <mxPoint x="-50" y="1804.5" as="sourcePoint" />
            <mxPoint x="20" y="1804.5" as="targetPoint" />
          </mxGeometry>
        </mxCell>
        <mxCell id="nasCyZGMzeWycCTVbHaB-34" value="&lt;b&gt;ETA: 1 - 1.5 day&lt;/b&gt;" style="text;html=1;align=center;verticalAlign=middle;whiteSpace=wrap;rounded=0;" vertex="1" parent="1">
          <mxGeometry x="-20" y="1950" width="110" height="50" as="geometry" />
        </mxCell>
        <mxCell id="nasCyZGMzeWycCTVbHaB-35" value="&lt;b&gt;ETA: 0.5 - 1 day&lt;/b&gt;" style="text;html=1;align=center;verticalAlign=middle;whiteSpace=wrap;rounded=0;" vertex="1" parent="1">
          <mxGeometry x="590" y="1820" width="110" height="50" as="geometry" />
        </mxCell>
        <mxCell id="nasCyZGMzeWycCTVbHaB-36" value="&lt;b&gt;ETA: will be delivered by platform team&lt;/b&gt;" style="text;html=1;align=center;verticalAlign=middle;whiteSpace=wrap;rounded=0;" vertex="1" parent="1">
          <mxGeometry x="-85" y="1440" width="150" height="30" as="geometry" />
        </mxCell>
        <mxCell id="nasCyZGMzeWycCTVbHaB-40" value="" style="endArrow=none;dashed=1;html=1;rounded=0;" edge="1" parent="1">
          <mxGeometry width="50" height="50" relative="1" as="geometry">
            <mxPoint x="420" y="1920" as="sourcePoint" />
            <mxPoint x="420" y="1660" as="targetPoint" />
          </mxGeometry>
        </mxCell>
        <mxCell id="nasCyZGMzeWycCTVbHaB-41" value="" style="endArrow=none;dashed=1;html=1;rounded=0;" edge="1" parent="1">
          <mxGeometry width="50" height="50" relative="1" as="geometry">
            <mxPoint x="700" y="1920" as="sourcePoint" />
            <mxPoint x="700" y="1660" as="targetPoint" />
          </mxGeometry>
        </mxCell>
        <mxCell id="nasCyZGMzeWycCTVbHaB-42" value="" style="endArrow=none;dashed=1;html=1;dashPattern=1 3;strokeWidth=2;rounded=0;" edge="1" parent="1">
          <mxGeometry width="50" height="50" relative="1" as="geometry">
            <mxPoint x="420" y="1660" as="sourcePoint" />
            <mxPoint x="700" y="1660" as="targetPoint" />
          </mxGeometry>
        </mxCell>
        <mxCell id="nasCyZGMzeWycCTVbHaB-43" value="" style="endArrow=none;dashed=1;html=1;dashPattern=1 3;strokeWidth=2;rounded=0;" edge="1" parent="1">
          <mxGeometry width="50" height="50" relative="1" as="geometry">
            <mxPoint x="420" y="1920" as="sourcePoint" />
            <mxPoint x="700" y="1920" as="targetPoint" />
          </mxGeometry>
        </mxCell>
        <mxCell id="nasCyZGMzeWycCTVbHaB-44" value="Not completely sure about this part, how this will be done. But some way will be there from where we will fetch results for each rules." style="text;html=1;align=center;verticalAlign=middle;whiteSpace=wrap;rounded=0;" vertex="1" parent="1">
          <mxGeometry x="440" y="1930" width="250" height="60" as="geometry" />
        </mxCell>
      </root>
    </mxGraphModel>
  </diagram>
</mxfile>
